<?xml version="1.0" encoding="UTF-8"?>
<!DOCTYPE svg PUBLIC "-//W3C//DTD SVG 1.1//EN" "http://www.w3.org/Graphics/SVG/1.1/DTD/svg11.dtd">
<svg xmlns="http://www.w3.org/2000/svg" version="1.1" width="512px" height="512px" style="shape-rendering:geometricPrecision; text-rendering:geometricPrecision; image-rendering:optimizeQuality; fill-rule:evenodd; clip-rule:evenodd" xmlns:xlink="http://www.w3.org/1999/xlink">
<g><path style="opacity:0.987" fill="#0b186b" d="M 99.5,-0.5 C 203.5,-0.5 307.5,-0.5 411.5,-0.5C 428.362,4.5381 437.862,15.8714 440,33.5C 440.667,91.1667 440.667,148.833 440,206.5C 437.945,224.553 428.112,235.719 410.5,240C 307.167,240.667 203.833,240.667 100.5,240C 82.888,235.719 73.0547,224.553 71,206.5C 70.3333,148.833 70.3333,91.1667 71,33.5C 73.1091,15.8967 82.6091,4.56333 99.5,-0.5 Z"/></g>
<g><path style="opacity:1" fill="#56a3fe" d="M 193.5,7.5 C 193.5,82.1667 193.5,156.833 193.5,231.5C 163.5,231.5 133.5,231.5 103.5,231.5C 91.3722,228.876 83.5389,221.542 80,209.5C 79.0114,148.442 79.3448,87.4423 81,26.5C 84.7678,16.3999 91.9345,10.2332 102.5,8C 132.832,7.50002 163.165,7.33335 193.5,7.5 Z"/></g>
<g><path style="opacity:1" fill="#dddaed" d="M 202.5,7.5 C 270.501,7.33334 338.501,7.5 406.5,8C 419.328,9.82695 427.495,16.9936 431,29.5C 431.667,89.5 431.667,149.5 431,209.5C 427.552,222.14 419.386,229.64 406.5,232C 338.501,232.5 270.501,232.667 202.5,232.5C 202.5,157.5 202.5,82.5 202.5,7.5 Z"/></g>
<g><path style="opacity:0.998" fill="#0c196d" d="M 138.5,34.5 C 158.338,34.5007 166.171,44.1674 162,63.5C 154.122,75.1199 143.955,77.6199 131.5,71C 121.744,61.2782 121.078,50.9449 129.5,40C 132.564,38.1412 135.564,36.3079 138.5,34.5 Z"/></g>
<g><path style="opacity:1" fill="#d9d6eb" d="M 140.5,42.5 C 153.98,43.4636 158.147,50.1303 153,62.5C 144.002,69.0857 137.002,67.419 132,57.5C 131.21,50.4097 134.044,45.4097 140.5,42.5 Z"/></g>
<g><path style="opacity:0.997" fill="#0d196d" d="M 304.5,59.5 C 343.574,60.0117 365.907,79.5117 371.5,118C 370.973,124.189 370.306,130.356 369.5,136.5C 375.842,136.334 382.175,136.5 388.5,137C 389,137.5 389.5,138 390,138.5C 390.819,148.744 390.652,158.91 389.5,169C 374.5,169.333 359.5,169.667 344.5,170C 328.214,179.751 310.881,182.085 292.5,177C 287.554,175.194 282.888,172.861 278.5,170C 263.5,169.667 248.5,169.333 233.5,169C 232.874,168.25 232.374,167.416 232,166.5C 231.333,157.5 231.333,148.5 232,139.5C 232.833,138.667 233.667,137.833 234.5,137C 240.825,136.5 247.158,136.334 253.5,136.5C 247.261,95.2867 264.261,69.62 304.5,59.5 Z"/></g>
<g><path style="opacity:1" fill="#56a3fe" d="M 300.5,68.5 C 327.335,65.3309 346.835,75.6642 359,99.5C 364.301,111.306 364.801,123.306 360.5,135.5C 327.6,136.829 294.767,136.829 262,135.5C 255.626,102.057 268.46,79.724 300.5,68.5 Z"/></g>
<g><path style="opacity:0.998" fill="#0d1a6d" d="M 139.5,99.5 C 157.04,99.5348 164.873,108.201 163,125.5C 157.491,138.348 147.991,142.515 134.5,138C 123.466,130.365 120.966,120.531 127,108.5C 130.299,104.118 134.466,101.118 139.5,99.5 Z"/></g>
<g><path style="opacity:1" fill="#dad7eb" d="M 138.5,108.5 C 150.326,106.833 155.826,111.833 155,123.5C 152.065,130.378 146.898,132.878 139.5,131C 129.291,123.921 128.958,116.421 138.5,108.5 Z"/></g>
<g><path style="opacity:1" fill="#56a3fe" d="M 240.5,144.5 C 287.833,144.5 335.167,144.5 382.5,144.5C 382.5,150.167 382.5,155.833 382.5,161.5C 335.167,161.5 287.833,161.5 240.5,161.5C 240.5,155.833 240.5,150.167 240.5,144.5 Z"/></g>
<g><path style="opacity:0.998" fill="#0d1a6d" d="M 137.5,165.5 C 152.721,163.58 161.388,170.08 163.5,185C 162.723,197.777 155.889,204.611 143,205.5C 127.405,202.307 121.405,192.974 125,177.5C 127.769,171.895 131.936,167.895 137.5,165.5 Z"/></g>
<g><path style="opacity:0.776" fill="#3d74cd" d="M 299.5,170.5 C 307.323,169.344 315.323,169.177 323.5,170C 315.544,171.831 307.544,171.997 299.5,170.5 Z"/></g>
<g><path style="opacity:1" fill="#dad7eb" d="M 139.5,173.5 C 152.628,172.796 157.461,178.796 154,191.5C 149.86,196.211 144.694,197.711 138.5,196C 128.991,188.051 129.324,180.551 139.5,173.5 Z"/></g>
<g><path style="opacity:0.839" fill="#396bc3" d="M 193.5,7.5 C 194.499,82.3315 194.833,157.331 194.5,232.5C 163.995,232.831 133.662,232.498 103.5,231.5C 133.5,231.5 163.5,231.5 193.5,231.5C 193.5,156.833 193.5,82.1667 193.5,7.5 Z"/></g>
<g><path style="opacity:0.987" fill="#0d196d" d="M 411.5,511.5 C 307.5,511.5 203.5,511.5 99.5,511.5C 82.6091,506.437 73.1091,495.103 71,477.5C 70.3333,419.833 70.3333,362.167 71,304.5C 73.0547,286.447 82.888,275.281 100.5,271C 203.833,270.333 307.167,270.333 410.5,271C 428.112,275.281 437.945,286.447 440,304.5C 440.667,362.167 440.667,419.833 440,477.5C 437.891,495.103 428.391,506.437 411.5,511.5 Z"/></g>
<g><path style="opacity:1" fill="#dddaed" d="M 103.5,278.5 C 133.5,278.5 163.5,278.5 193.5,278.5C 193.5,353.5 193.5,428.5 193.5,503.5C 163.165,503.667 132.832,503.5 102.5,503C 90.3333,500.167 82.8333,492.667 80,480.5C 79.3333,420.833 79.3333,361.167 80,301.5C 83.4628,289.216 91.2962,281.55 103.5,278.5 Z"/></g>
<g><path style="opacity:1" fill="#56a3fe" d="M 202.5,278.5 C 270.501,278.333 338.501,278.5 406.5,279C 419.122,281.621 427.289,289.121 431,301.5C 431.667,361.167 431.667,420.833 431,480.5C 427.929,493.571 419.763,501.071 406.5,503C 338.501,503.5 270.501,503.667 202.5,503.5C 202.5,428.5 202.5,353.5 202.5,278.5 Z"/></g>
<g><path style="opacity:0.997" fill="#0d1a6d" d="M 235.5,305.5 C 246.975,304.82 254.809,309.82 259,320.5C 260.871,332.262 256.371,340.429 245.5,345C 232.609,347.806 224.109,342.973 220,330.5C 218.457,317.898 223.624,309.565 235.5,305.5 Z"/></g>
<g><path style="opacity:1" fill="#dad7eb" d="M 234.5,314.5 C 244.038,312.425 249.705,316.092 251.5,325.5C 250.287,334.948 244.954,338.781 235.5,337C 229.223,334.193 226.723,329.36 228,322.5C 229.305,319.039 231.471,316.372 234.5,314.5 Z"/></g>
<g><path style="opacity:1" fill="#102074" d="M 282.5,321.5 C 316.835,321.333 351.168,321.5 385.5,322C 388.399,325.156 388.065,327.822 384.5,330C 350.833,330.667 317.167,330.667 283.5,330C 279.868,327.653 279.535,324.82 282.5,321.5 Z"/></g>
<g><path style="opacity:0.999" fill="#0f1b6e" d="M 131.5,361.5 C 154.669,361.335 166.002,372.668 165.5,395.5C 168.157,396.259 170.823,396.926 173.5,397.5C 174.663,403.137 174.83,408.804 174,414.5C 173.25,415.126 172.416,415.626 171.5,416C 164.5,416.333 157.5,416.667 150.5,417C 141.151,421.609 131.818,421.609 122.5,417C 115.5,416.667 108.5,416.333 101.5,416C 100.333,415.5 99.5,414.667 99,413.5C 98.3333,408.5 98.3333,403.5 99,398.5C 101.481,396.686 104.315,396.02 107.5,396.5C 106.352,378.44 114.352,366.773 131.5,361.5 Z"/></g>
<g><path style="opacity:1" fill="#56a2fd" d="M 132.5,369.5 C 150.217,369.882 158.55,378.882 157.5,396.5C 143.817,396.833 130.15,396.499 116.5,395.5C 114.699,382.435 120.032,373.768 132.5,369.5 Z"/></g>
<g><path style="opacity:0.997" fill="#0d196d" d="M 232.5,371.5 C 245.256,368.959 254.089,373.626 259,385.5C 260.62,400.546 253.953,409.213 239,411.5C 220.896,407.293 215.563,396.626 223,379.5C 225.772,376.217 228.939,373.55 232.5,371.5 Z"/></g>
<g><path style="opacity:1" fill="#dad7eb" d="M 234.5,379.5 C 247.687,378.178 252.854,383.845 250,396.5C 249.215,398.286 248.049,399.786 246.5,401C 233.785,405.272 227.618,400.772 228,387.5C 229.305,384.039 231.471,381.372 234.5,379.5 Z"/></g>
<g><path style="opacity:1" fill="#102074" d="M 283.5,386.5 C 317.168,386.333 350.835,386.5 384.5,387C 387.306,388.305 388.14,390.472 387,393.5C 386.25,394.126 385.416,394.626 384.5,395C 350.5,395.667 316.5,395.667 282.5,395C 279.665,391.695 279.999,388.862 283.5,386.5 Z"/></g>
<g><path style="opacity:1" fill="#56a3fe" d="M 106.5,404.5 C 126.5,404.5 146.5,404.5 166.5,404.5C 166.5,405.5 166.5,406.5 166.5,407.5C 146.5,407.5 126.5,407.5 106.5,407.5C 106.5,406.5 106.5,405.5 106.5,404.5 Z"/></g>
<g><path style="opacity:0.998" fill="#0c196d" d="M 233.5,436.5 C 253.307,435.801 261.474,445.134 258,464.5C 252.479,474.347 244.146,478.014 233,475.5C 219.465,468.559 216.131,458.225 223,444.5C 225.94,440.963 229.44,438.297 233.5,436.5 Z"/></g>
<g><path style="opacity:1" fill="#dad7eb" d="M 235.5,444.5 C 246.495,443.663 251.662,448.663 251,459.5C 247.02,468.079 240.853,470.246 232.5,466C 225.146,457.644 226.146,450.477 235.5,444.5 Z"/></g>
<g><path style="opacity:1" fill="#09176b" d="M 281.5,452.5 C 316.168,452.333 350.835,452.5 385.5,453C 388.167,455.333 388.167,457.667 385.5,460C 351.167,460.667 316.833,460.667 282.5,460C 280.285,457.758 279.952,455.258 281.5,452.5 Z"/></g>
</svg>
